<?xml version="1.0" encoding="UTF-8"?>
<svg xmlns="http://www.w3.org/2000/svg" viewBox="158 0 76.5 76.504" version="1.1">
  <g transform="translate(-41.39 -42.68)">
    <g
        id="g2294"
        transform="matrix(.5 0 0 .5 -6.3571 42.003)"
      >
      <rect
          id="rect2296"
          style="color:#000000;fill-rule:evenodd;stroke:#000000;stroke-width:3;fill:#ffffff"
          rx="50"
          ry="50"
          height="150"
          width="150"
          y="2.8622"
          x="413"
      />
      <path
          id="path2298"
          style="color:#000000;fill-rule:evenodd;stroke:#000000;stroke-width:3;fill:#000000"
          d="m337.5 227.36c0 6.9036-5.5964 12.5-12.5 12.5s-12.5-5.5964-12.5-12.5 5.5964-12.5 12.5-12.5 12.5 5.5964 12.5 12.5z"
          transform="translate(126.5,-186)"
      />
      <path
          id="path2300"
          style="color:#000000;fill-rule:evenodd;stroke:#000000;stroke-width:3;fill:#000000"
          d="m337.5 227.36c0 6.9036-5.5964 12.5-12.5 12.5s-12.5-5.5964-12.5-12.5 5.5964-12.5 12.5-12.5 12.5 5.5964 12.5 12.5z"
          transform="translate(198.5,-114)"
      />
      <path
          id="path2302"
          style="color:#000000;fill-rule:evenodd;stroke:#000000;stroke-width:3;fill:#000000"
          d="m337.5 227.36c0 6.9036-5.5964 12.5-12.5 12.5s-12.5-5.5964-12.5-12.5 5.5964-12.5 12.5-12.5 12.5 5.5964 12.5 12.5z"
          transform="translate(162.5,-150)"
      />
    </g
    >
  </g>
</svg>
