<?xml version="1.0" encoding="UTF-8"?>
<svg xmlns="http://www.w3.org/2000/svg" viewBox="395 0 76.5 76.504" version="1.1">
  <g transform="translate(-41.39 -42.68)">
    <g
        id="g2252"
        transform="matrix(.5 0 0 .5 424.39 -101.75)"
      >
      <rect
          id="rect2254"
          style="color:#000000;fill-rule:evenodd;stroke:#000000;stroke-width:3;fill:#ffffff"
          rx="50"
          ry="50"
          height="150"
          width="150"
          y="290.36"
          x="25.5"
      />
      <path
          id="path2256"
          style="color:#000000;fill-rule:evenodd;stroke:#000000;stroke-width:3;fill:#000000"
          d="m337.5 227.36c0 6.9036-5.5964 12.5-12.5 12.5s-12.5-5.5964-12.5-12.5 5.5964-12.5 12.5-12.5 12.5 5.5964 12.5 12.5z"
          transform="translate(-261,101.5)"
      />
      <path
          id="path2258"
          style="color:#000000;fill-rule:evenodd;stroke:#000000;stroke-width:3;fill:#000000"
          d="m337.5 227.36c0 6.9036-5.5964 12.5-12.5 12.5s-12.5-5.5964-12.5-12.5 5.5964-12.5 12.5-12.5 12.5 5.5964 12.5 12.5z"
          transform="translate(-261,173.5)"
      />
      <path
          id="path2260"
          style="color:#000000;fill-rule:evenodd;stroke:#000000;stroke-width:3;fill:#000000"
          d="m337.5 227.36c0 6.9036-5.5964 12.5-12.5 12.5s-12.5-5.5964-12.5-12.5 5.5964-12.5 12.5-12.5 12.5 5.5964 12.5 12.5z"
          transform="translate(-261,137.5)"
      />
      <path
          id="path2262"
          style="color:#000000;fill-rule:evenodd;stroke:#000000;stroke-width:3;fill:#000000"
          d="m337.5 227.36c0 6.9036-5.5964 12.5-12.5 12.5s-12.5-5.5964-12.5-12.5 5.5964-12.5 12.5-12.5 12.5 5.5964 12.5 12.5z"
          transform="translate(-189,101.5)"
      />
      <path
          id="path2264"
          style="color:#000000;fill-rule:evenodd;stroke:#000000;stroke-width:3;fill:#000000"
          d="m337.5 227.36c0 6.9036-5.5964 12.5-12.5 12.5s-12.5-5.5964-12.5-12.5 5.5964-12.5 12.5-12.5 12.5 5.5964 12.5 12.5z"
          transform="translate(-189,173.5)"
      />
      <path
          id="path2266"
          style="color:#000000;fill-rule:evenodd;stroke:#000000;stroke-width:3;fill:#000000"
          d="m337.5 227.36c0 6.9036-5.5964 12.5-12.5 12.5s-12.5-5.5964-12.5-12.5 5.5964-12.5 12.5-12.5 12.5 5.5964 12.5 12.5z"
          transform="translate(-189,137.5)"
      />
    </g
    >
  </g>
</svg>
