<?xml version="1.0" encoding="UTF-8"?>
<svg xmlns="http://www.w3.org/2000/svg" viewBox="237 0 76.5 76.504" version="1.1">
  <g transform="translate(-41.39 -42.68)">
    <g
        id="g2282"
        transform="matrix(.5 0 0 .5 66.393 -89.247)"
      >
      <rect
          id="rect2284"
          style="color:#000000;fill-rule:evenodd;stroke:#000000;stroke-width:3;fill:#ffffff"
          rx="50"
          ry="50"
          height="150"
          width="150"
          y="265.36"
          x="425.5"
      />
      <path
          id="path2286"
          style="color:#000000;fill-rule:evenodd;stroke:#000000;stroke-width:3;fill:#000000"
          d="m337.5 227.36c0 6.9036-5.5964 12.5-12.5 12.5s-12.5-5.5964-12.5-12.5 5.5964-12.5 12.5-12.5 12.5 5.5964 12.5 12.5z"
          transform="translate(139,76.5)"
      />
      <path
          id="path2288"
          style="color:#000000;fill-rule:evenodd;stroke:#000000;stroke-width:3;fill:#000000"
          d="m337.5 227.36c0 6.9036-5.5964 12.5-12.5 12.5s-12.5-5.5964-12.5-12.5 5.5964-12.5 12.5-12.5 12.5 5.5964 12.5 12.5z"
          transform="translate(139,148.5)"
      />
      <path
          id="path2290"
          style="color:#000000;fill-rule:evenodd;stroke:#000000;stroke-width:3;fill:#000000"
          d="m337.5 227.36c0 6.9036-5.5964 12.5-12.5 12.5s-12.5-5.5964-12.5-12.5 5.5964-12.5 12.5-12.5 12.5 5.5964 12.5 12.5z"
          transform="translate(211,76.5)"
      />
      <path
          id="path2292"
          style="color:#000000;fill-rule:evenodd;stroke:#000000;stroke-width:3;fill:#000000"
          d="m337.5 227.36c0 6.9036-5.5964 12.5-12.5 12.5s-12.5-5.5964-12.5-12.5 5.5964-12.5 12.5-12.5 12.5 5.5964 12.5 12.5z"
          transform="translate(211,148.5)"
      />
    </g
    >
  </g>
</svg>
